<svg width="73" height="120" viewBox="0 0 73 120" fill="none" xmlns="http://www.w3.org/2000/svg">
<path d="M20.0864 67.2444L55.4135 31.9173C61.5573 26.6986 69.2371 36.5279 64.6292 41.1331L52.4952 53.4226C55.8306 50.0444 65.2435 59.2602 59.407 65.0968L58.2335 66.2703C60.342 64.3294 70.4079 72.8345 64.0149 79.2277L63.2194 80.0231C66.2788 77.8943 73.9268 88.6538 69.5443 92.7441L46.1977 113.633C41.0778 116.5 29.1178 120.699 22.2367 114.555C13.6353 106.875 2.26922 99.5024 2.57641 85.6787C2.82216 74.6198 2.67881 50.7612 2.57641 40.2142C2.57641 34.992 12.9594 36.2829 15.1712 43.9005C17.383 51.5182 19.3696 62.6371 20.0864 67.2444Z" fill="white"/>
<path d="M40.3611 65.7121L52.4952 53.4226M52.4952 53.4226L64.6292 41.1331C69.2371 36.5279 61.5573 26.6986 55.4135 31.9173L20.0864 67.2444C19.3696 62.6371 17.383 51.5182 15.1712 43.9005C12.9594 36.2829 2.57641 34.992 2.57641 40.2142C2.67881 50.7612 2.82216 74.6198 2.57641 85.6787C2.26922 99.5024 13.6353 106.875 22.2367 114.555C29.1178 120.699 41.0778 116.5 46.1977 113.633L69.5443 92.7441C74.1521 88.4434 65.4605 76.7701 62.7861 80.4564M52.4952 53.4226C55.8306 50.0444 65.2435 59.2602 59.407 65.0968L58.1782 66.3256M48.6553 75.8485L58.1782 66.3256M58.1782 66.3256C60.1585 64.1752 70.4658 72.7766 64.0149 79.2277L62.7861 80.4564M57.5638 85.6787L62.7861 80.4564" stroke="#212738" stroke-width="3.40339"/>
<path d="M28.0727 4.27344L29.6086 26.6985M51.7265 16.5611L36.6741 32.8423M7.18359 19.0187L24.0792 33.4567" stroke="#212738" stroke-width="6.80678" stroke-linecap="round"/>
</svg>
