<svg width="76" height="47" viewBox="0 0 76 47" fill="none" xmlns="http://www.w3.org/2000/svg">
<rect width="76" height="46.6667" rx="13.3333" fill="white"/>
<path d="M46.5673 19.412V22.6787H50.954V24.7507H46.5673V28.204H51.514V30.332H43.954V17.284H51.514V19.412H46.5673ZM58.3876 30.4627C57.4791 30.4627 56.6578 30.3071 55.9236 29.996C55.2018 29.6849 54.6294 29.2369 54.2062 28.652C53.7831 28.0671 53.5654 27.3765 53.5529 26.58H56.3529C56.3902 27.1151 56.5769 27.5383 56.9129 27.8494C57.2614 28.1605 57.7342 28.316 58.3316 28.316C58.9414 28.316 59.4205 28.1729 59.7689 27.8867C60.1174 27.588 60.2916 27.2023 60.2916 26.7294C60.2916 26.3436 60.1734 26.0263 59.9369 25.7774C59.7005 25.5285 59.4018 25.3356 59.0409 25.1987C58.6925 25.0494 58.2071 24.8876 57.5849 24.7134C56.7387 24.4645 56.048 24.2218 55.5129 23.9854C54.9902 23.7365 54.536 23.3694 54.1502 22.884C53.7769 22.3863 53.5902 21.7267 53.5902 20.9054C53.5902 20.1338 53.7831 19.4618 54.1689 18.8894C54.5547 18.3169 55.096 17.8814 55.7929 17.5827C56.4898 17.2716 57.2862 17.116 58.1822 17.116C59.5262 17.116 60.6151 17.4458 61.4489 18.1054C62.2951 18.7525 62.7618 19.6609 62.8489 20.8307H59.9742C59.9494 20.3827 59.7565 20.0156 59.3956 19.7294C59.0471 19.4307 58.5805 19.2814 57.9956 19.2814C57.4854 19.2814 57.0747 19.412 56.7636 19.6734C56.4649 19.9347 56.3156 20.3143 56.3156 20.812C56.3156 21.1605 56.4276 21.4529 56.6516 21.6894C56.888 21.9134 57.1742 22.1 57.5102 22.2494C57.8587 22.3863 58.344 22.548 58.9662 22.7347C59.8125 22.9836 60.5031 23.2325 61.0382 23.4814C61.5734 23.7303 62.0338 24.1036 62.4196 24.6014C62.8054 25.0991 62.9982 25.7525 62.9982 26.5614C62.9982 27.2583 62.8178 27.9054 62.4569 28.5027C62.096 29.1 61.5671 29.5791 60.8702 29.94C60.1734 30.2885 59.3458 30.4627 58.3876 30.4627Z" fill="#212738"/>
<path d="M22.6678 35.1109C28.8044 35.1109 33.7789 30.1365 33.7789 23.9998C33.7789 17.8631 28.8044 12.8887 22.6678 12.8887C16.5311 12.8887 11.5566 17.8631 11.5566 23.9998C11.5566 30.1365 16.5311 35.1109 22.6678 35.1109Z" stroke="#212738" stroke-width="2" stroke-linecap="round" stroke-linejoin="round"/>
<path d="M11.5566 24H33.7789" stroke="#212738" stroke-width="2" stroke-linecap="round" stroke-linejoin="round"/>
<path d="M22.6671 35.1109C25.1215 35.1109 27.1115 30.1365 27.1115 23.9998C27.1115 17.8631 25.1215 12.8887 22.6671 12.8887C20.2127 12.8887 18.2227 17.8631 18.2227 23.9998C18.2227 30.1365 20.2127 35.1109 22.6671 35.1109Z" stroke="#212738" stroke-width="2" stroke-linecap="round" stroke-linejoin="round"/>
</svg>
