<svg width="118" height="114" viewBox="0 0 118 114" fill="none" xmlns="http://www.w3.org/2000/svg">
<path d="M64.4897 70.2792L62.3357 72.6504M64.4897 70.2792L78.3115 55.2009M64.4897 70.2792L52.2835 32.2244M92.1333 40.1226L78.3115 55.2009M26.435 100.436L62.3357 72.6504M33.6151 40.1226L62.3357 72.6504M62.3357 72.6504L110.084 74.9463L90.3383 94.6917M62.3357 72.6504L56.9506 105.103M62.3357 72.6504L4.89453 64.8941M62.3357 72.6504L99.3134 55.2009M62.3357 72.6504L84.5941 93.2556M78.3115 55.2009L59.1046 11.043M4.89453 64.8941L19.9728 53.4058M4.89453 64.8941L13.1517 82.1264" stroke="#212738" stroke-width="3.40339"/>
<circle cx="97.8775" cy="33.6627" r="8.97518" fill="#212738"/>
<circle cx="88.9028" cy="95.77" r="7.18015" fill="#212738"/>
<circle cx="23.9205" cy="102.588" r="8.97518" fill="#212738"/>
<circle cx="110.442" cy="74.227" r="6.04568" fill="white" stroke="#212738" stroke-width="2.26893"/>
<circle cx="57.3091" cy="7.45358" r="6.04568" fill="white" stroke="#212738" stroke-width="2.26893"/>
<circle cx="102.186" cy="53.7679" r="5.38511" fill="#212738"/>
<circle cx="57.3091" cy="106.536" r="6.04568" fill="white" stroke="#212738" stroke-width="2.26893"/>
<circle cx="31.8219" cy="36.5328" r="6.10312" fill="#212738"/>
<circle cx="6.68906" cy="64.5367" r="6.10312" fill="#212738"/>
<circle cx="23.5615" cy="51.249" r="7.48171" fill="white" stroke="#212738" stroke-width="2.26893"/>
<circle cx="52.2802" cy="30.4326" r="7.48171" fill="white" stroke="#212738" stroke-width="2.26893"/>
<circle cx="14.227" cy="85.0005" r="6.04568" fill="white" stroke="#212738" stroke-width="2.26893"/>
<circle cx="62.3336" cy="64.8922" r="23.3355" fill="white" stroke="#212738" stroke-width="3.59007"/>
<path fill-rule="evenodd" clip-rule="evenodd" d="M79.9253 59.5057V81.0461C72.3861 91.8164 47.2556 90.0213 45.1016 79.6101V65.9678H47.2556L48.6916 49.8125H51.9227L53.7177 65.9678H55.5128L56.9488 54.4796H59.1028L60.5389 65.9678H62.6929L70.5911 59.5057V65.9678L79.9253 59.5057ZM47.9727 69.1992H50.8447V72.7893H47.9727V69.1992ZM59.4619 69.1992H56.5898V72.7893H59.4619V69.1992ZM65.207 69.1992H68.0791V72.7893H65.207V69.1992ZM76.6924 69.1992H73.8203V72.7893H76.6924V69.1992Z" fill="#212738"/>
</svg>
