<svg width="89" height="114" viewBox="0 0 89 114" fill="none" xmlns="http://www.w3.org/2000/svg">
<path d="M38.7737 6.51758C41.834 3.15863 47.1199 3.15863 50.1802 6.51758C52.2103 8.74581 55.3522 9.58768 58.2245 8.67304C62.5543 7.29427 67.132 9.9372 68.1028 14.3763C68.7468 17.3211 71.0469 19.6211 73.9917 20.2651C78.4307 21.236 81.0737 25.8137 79.6949 30.1435C78.7803 33.0157 79.6221 36.1576 81.8504 38.1878C85.2093 41.2481 85.2093 46.5339 81.8504 49.5943C79.6221 51.6244 78.7803 54.7663 79.6949 57.6386C81.0737 61.9683 78.4307 66.546 73.9917 67.5169C71.0469 68.1609 68.7468 70.4609 68.1028 73.4057C67.132 77.8448 62.5543 80.4877 58.2245 79.109C55.3522 78.1943 52.2103 79.0362 50.1802 81.2644C47.1199 84.6234 41.834 84.6234 38.7737 81.2644C36.7436 79.0362 33.6017 78.1943 30.7294 79.109C26.3996 80.4877 21.8219 77.8448 20.8511 73.4057C20.207 70.4609 17.907 68.1609 14.9622 67.5169C10.5231 66.546 7.88021 61.9683 9.25898 57.6386C10.1736 54.7663 9.33175 51.6244 7.10351 49.5943C3.74457 46.5339 3.74457 41.2481 7.10351 38.1878C9.33175 36.1576 10.1736 33.0157 9.25898 30.1435C7.88021 25.8137 10.5231 21.236 14.9622 20.2651C17.907 19.6211 20.207 17.3211 20.8511 14.3763C21.8219 9.9372 26.3996 7.29427 30.7294 8.67304C33.6017 9.58768 36.7436 8.74581 38.7737 6.51758Z" fill="#212738"/>
<path fill-rule="evenodd" clip-rule="evenodd" d="M23.1095 81.7493L10.2953 105.339L21.5672 104.612L27.385 113.702L40.302 86.9229C39.7518 86.5682 39.2372 86.1365 38.7737 85.6277C36.7436 83.3995 33.6017 82.5576 30.7294 83.4723C27.9524 84.3566 25.0735 83.5865 23.1095 81.7493ZM48.368 87.0972L61.201 113.702L67.0187 104.612L78.2906 105.339L65.5969 81.9711C63.6432 83.6472 60.887 84.3201 58.2245 83.4723C55.3522 82.5576 52.2103 83.3995 50.1802 85.6277C49.6378 86.2231 49.0255 86.7129 48.368 87.0972Z" fill="#212738"/>
<circle cx="44.4755" cy="43.8896" r="29.0888" fill="white"/>
<path d="M31.657 36.5348V35.0765C31.657 34.0286 31.8842 33.0754 32.3387 32.2169C32.7932 31.3584 33.475 30.6703 34.384 30.1527C35.2931 29.635 36.423 29.3762 37.7739 29.3762C39.1627 29.3762 40.3116 29.635 41.2207 30.1527C42.1297 30.6703 42.8051 31.3584 43.247 32.2169C43.7015 33.0754 43.9288 34.0286 43.9288 35.0765V36.5348C43.9288 37.5574 43.7015 38.498 43.247 39.3565C42.8051 40.2151 42.1297 40.9031 41.2207 41.4208C40.3243 41.9384 39.1943 42.1972 37.8307 42.1972C36.4546 42.1972 35.312 41.9384 34.403 41.4208C33.4939 40.9031 32.8059 40.2151 32.3387 39.3565C31.8842 38.498 31.657 37.5574 31.657 36.5348ZM35.7476 35.0765V36.5348C35.7476 36.9135 35.8233 37.2734 35.9748 37.6142C36.1263 37.9551 36.3536 38.2329 36.6566 38.4475C36.9722 38.6495 37.3573 38.7505 37.8118 38.7505C38.2789 38.7505 38.6577 38.6495 38.9481 38.4475C39.2385 38.2329 39.4531 37.9551 39.592 37.6142C39.7435 37.2734 39.8192 36.9135 39.8192 36.5348V35.0765C39.8192 34.6725 39.7435 34.3001 39.592 33.9592C39.4531 33.6183 39.2322 33.3469 38.9292 33.1449C38.6261 32.9302 38.2411 32.8229 37.7739 32.8229C37.332 32.8229 36.9596 32.9302 36.6566 33.1449C36.3536 33.3469 36.1263 33.6183 35.9748 33.9592C35.8233 34.3001 35.7476 34.6725 35.7476 35.0765ZM44.7431 52.045V50.5868C44.7431 49.5515 44.9704 48.6046 45.4249 47.7461C45.892 46.8876 46.5801 46.1995 47.4891 45.6818C48.4108 45.1642 49.5471 44.9054 50.898 44.9054C52.2868 44.9054 53.4294 45.1642 54.3258 45.6818C55.2348 46.1995 55.9102 46.8876 56.3521 47.7461C56.8066 48.6046 57.0339 49.5515 57.0339 50.5868V52.045C57.0339 53.0803 56.8066 54.0272 56.3521 54.8857C55.9102 55.7442 55.2411 56.4323 54.3447 56.95C53.4483 57.4676 52.3183 57.7264 50.9548 57.7264C49.5786 57.7264 48.4297 57.4676 47.5081 56.95C46.5864 56.4323 45.892 55.7442 45.4249 54.8857C44.9704 54.0272 44.7431 53.0803 44.7431 52.045ZM48.8527 50.5868V52.045C48.8527 52.4364 48.9474 52.8025 49.1367 53.1434C49.3261 53.4843 49.5786 53.7621 49.8943 53.9767C50.2099 54.1787 50.5571 54.2797 50.9359 54.2797C51.5166 54.2797 51.9459 54.1787 52.2236 53.9767C52.514 53.7621 52.7034 53.4843 52.7918 53.1434C52.8928 52.8025 52.9433 52.4364 52.9433 52.045V50.5868C52.9433 50.1954 52.8675 49.8293 52.716 49.4884C52.5645 49.1475 52.3373 48.8761 52.0343 48.674C51.7313 48.4594 51.3525 48.3521 50.898 48.3521C50.4435 48.3521 50.0647 48.4594 49.7617 48.674C49.4587 48.8761 49.2314 49.1475 49.0799 49.4884C48.9284 49.8293 48.8527 50.1954 48.8527 50.5868ZM52.4888 33.732L39.0238 55.2834L36.0506 53.7873L49.5155 32.2358L52.4888 33.732Z" fill="#212738"/>
</svg>
