<svg width="88" height="114" viewBox="0 0 88 114" fill="none" xmlns="http://www.w3.org/2000/svg">
<path d="M38.6213 6.52148C41.6817 3.16254 46.9675 3.16254 50.0279 6.52148C52.058 8.74972 55.1999 9.59159 58.0722 8.67695C62.4019 7.29818 66.9796 9.94111 67.9505 14.3802C68.5945 17.325 70.8945 19.625 73.8393 20.269C78.2784 21.2399 80.9213 25.8176 79.5426 30.1474C78.6279 33.0196 79.4698 36.1615 81.698 38.1917C85.057 41.252 85.057 46.5378 81.698 49.5982C79.4698 51.6283 78.6279 54.7702 79.5426 57.6425C80.9213 61.9723 78.2784 66.5499 73.8393 67.5208C70.8945 68.1648 68.5945 70.4649 67.9505 73.4096C66.9796 77.8487 62.4019 80.4916 58.0722 79.1129C55.1999 78.1982 52.058 79.0401 50.0279 81.2683C46.9675 84.6273 41.6817 84.6273 38.6213 81.2683C36.5912 79.0401 33.4493 78.1982 30.577 79.1129C26.2473 80.4916 21.6696 77.8487 20.6987 73.4096C20.0547 70.4649 17.7547 68.1648 14.8099 67.5208C10.3708 66.5499 7.72787 61.9723 9.10664 57.6425C10.0213 54.7702 9.17941 51.6283 6.95117 49.5982C3.59223 46.5378 3.59223 41.252 6.95117 38.1917C9.1794 36.1615 10.0213 33.0196 9.10664 30.1474C7.72787 25.8176 10.3708 21.2399 14.8099 20.269C17.7547 19.625 20.0547 17.325 20.6987 14.3802C21.6696 9.94111 26.2473 7.29818 30.577 8.67695C33.4493 9.59159 36.5912 8.74972 38.6213 6.52148Z" fill="#212738"/>
<path fill-rule="evenodd" clip-rule="evenodd" d="M22.9598 81.7556L10.1469 105.343L21.4188 104.616L27.2365 113.706L40.1527 86.9287C39.6013 86.5736 39.0857 86.1413 38.6213 85.6316C36.5912 83.4034 33.4493 82.5615 30.577 83.4761C27.8013 84.36 24.9236 83.5911 22.9598 81.7556ZM48.2187 87.0993L61.0525 113.706L66.8703 104.616L78.1422 105.343L65.4472 81.9727C63.4934 83.6505 60.7359 84.3244 58.0721 83.4761C55.1999 82.5615 52.058 83.4034 50.0278 85.6316C49.4863 86.226 48.875 86.7153 48.2187 87.0993Z" fill="#212738"/>
<circle cx="44.3232" cy="43.8935" r="29.0888" fill="white"/>
<path d="M32.6875 43.1661L41.0505 50.4383L55.9585 36.6211" stroke="#212738" stroke-width="7.2722" stroke-linecap="round" stroke-linejoin="round"/>
</svg>
