<svg width="112" height="113" viewBox="0 0 112 113" fill="none" xmlns="http://www.w3.org/2000/svg">
<rect x="53.4531" y="12.8516" width="4.44709" height="13.3413" rx="2.22355" fill="#212738"/>
<rect x="53.4531" y="86.2266" width="4.44709" height="13.3413" rx="2.22355" fill="#212738"/>
<rect x="11.9492" y="58.8047" width="4.44709" height="13.3413" rx="2.22355" transform="rotate(-90 11.9492 58.8047)" fill="#212738"/>
<rect x="85.3281" y="58.8047" width="4.44709" height="13.3413" rx="2.22355" transform="rotate(-90 85.3281 58.8047)" fill="#212738"/>
<rect x="18.8672" y="80.1875" width="4.44709" height="6.67064" rx="2.22355" transform="rotate(-120 18.8672 80.1875)" fill="#212738"/>
<rect x="35.5547" y="95.2461" width="4.44709" height="6.67064" rx="2.22355" transform="rotate(-150 35.5547 95.2461)" fill="#212738"/>
<rect x="78.9141" y="93.0195" width="4.44709" height="6.67064" rx="2.22355" transform="rotate(150 78.9141 93.0195)" fill="#212738"/>
<rect x="38.8906" y="23.6953" width="4.44709" height="6.67064" rx="2.22355" transform="rotate(150 38.8906 23.6953)" fill="#212738"/>
<rect x="93.9688" y="76.3359" width="4.44709" height="6.67064" rx="2.22355" transform="rotate(120 93.9688 76.3359)" fill="#212738"/>
<rect x="24.6484" y="36.3164" width="4.44709" height="6.67064" rx="2.22355" transform="rotate(120 24.6484 36.3164)" fill="#212738"/>
<path d="M54.9385 50.2828L29.7383 39.9062L55.6797 63.6241L97.5565 13.9648L54.9385 50.2828Z" fill="#212738" stroke="#212738" stroke-width="0.741182" stroke-linecap="round" stroke-linejoin="round"/>
<path fill-rule="evenodd" clip-rule="evenodd" d="M55.6797 0.992188C55.6793 0.992188 55.6789 0.992188 55.6785 0.992188C24.9777 0.992188 0.0898438 25.8801 0.0898438 56.5809C0.0898438 87.2817 24.9777 112.17 55.6785 112.17C86.3786 112.17 111.266 87.2829 111.267 56.5831H104.46C104.459 83.5236 82.6193 105.363 55.6785 105.363C28.737 105.363 6.89662 83.5224 6.89662 56.5809C6.89662 29.6394 28.737 7.79897 55.6785 7.79897C55.6789 7.79897 55.6793 7.79897 55.6797 7.79897V0.992188Z" fill="#212738"/>
</svg>
