<svg width="27" height="27" viewBox="0 0 27 27" fill="none" xmlns="http://www.w3.org/2000/svg">
<path d="M13.3333 0C5.97333 0 0 5.97333 0 13.3333C0 20.6933 5.97333 26.6667 13.3333 26.6667C20.6933 26.6667 26.6667 20.6933 26.6667 13.3333C26.6667 5.97333 20.6933 0 13.3333 0ZM13.3333 4C15.5467 4 17.3333 5.78667 17.3333 8C17.3333 10.2133 15.5467 12 13.3333 12C11.12 12 9.33333 10.2133 9.33333 8C9.33333 5.78667 11.12 4 13.3333 4ZM13.3333 22.9333C11.7491 22.9333 10.1896 22.5413 8.7937 21.7922C7.39783 21.0431 6.20904 19.9601 5.33333 18.64C5.37333 15.9867 10.6667 14.5333 13.3333 14.5333C15.9867 14.5333 21.2933 15.9867 21.3333 18.64C20.4576 19.9601 19.2688 21.0431 17.873 21.7922C16.4771 22.5413 14.9175 22.9333 13.3333 22.9333Z" fill="#312828"/>
</svg>
