<svg width="230" height="50" viewBox="0 0 230 50" fill="none" xmlns="http://www.w3.org/2000/svg">
<path d="M70.625 31.2969C70.625 30.9844 70.526 30.7083 70.3281 30.4688C70.1406 30.2292 69.7969 30.0104 69.2969 29.8125C68.8073 29.6146 68.1146 29.4167 67.2188 29.2188C66.375 29.0417 65.5885 28.8125 64.8594 28.5312C64.1302 28.2396 63.4948 27.8906 62.9531 27.4844C62.4115 27.0677 61.9896 26.5781 61.6875 26.0156C61.3854 25.4427 61.2344 24.7917 61.2344 24.0625C61.2344 23.3542 61.3854 22.6823 61.6875 22.0469C62 21.4115 62.4479 20.849 63.0312 20.3594C63.625 19.8698 64.3438 19.4844 65.1875 19.2031C66.0417 18.9219 67.0104 18.7812 68.0938 18.7812C69.5833 18.7812 70.8698 19.0156 71.9531 19.4844C73.0365 19.9427 73.8698 20.5885 74.4531 21.4219C75.0365 22.2448 75.3281 23.1875 75.3281 24.25H70.4531C70.4531 23.8125 70.3698 23.4323 70.2031 23.1094C70.0365 22.7865 69.7812 22.5365 69.4375 22.3594C69.0938 22.1719 68.6406 22.0781 68.0781 22.0781C67.6406 22.0781 67.2552 22.1562 66.9219 22.3125C66.599 22.4583 66.3438 22.6615 66.1562 22.9219C65.9792 23.1823 65.8906 23.4844 65.8906 23.8281C65.8906 24.0677 65.9427 24.2865 66.0469 24.4844C66.1615 24.6719 66.3333 24.849 66.5625 25.0156C66.8021 25.1719 67.1094 25.3125 67.4844 25.4375C67.8698 25.5625 68.3385 25.6823 68.8906 25.7969C70.0677 26.0156 71.1406 26.3229 72.1094 26.7188C73.0885 27.1146 73.8698 27.6615 74.4531 28.3594C75.0469 29.0573 75.3438 29.9792 75.3438 31.125C75.3438 31.875 75.1719 32.5625 74.8281 33.1875C74.4948 33.8125 74.0104 34.3594 73.375 34.8281C72.7396 35.2969 71.9792 35.6615 71.0938 35.9219C70.2083 36.1823 69.2083 36.3125 68.0938 36.3125C66.5 36.3125 65.151 36.026 64.0469 35.4531C62.9427 34.8802 62.1094 34.1615 61.5469 33.2969C60.9948 32.4219 60.7188 31.526 60.7188 30.6094H65.2969C65.3177 31.1719 65.4583 31.6302 65.7188 31.9844C65.9896 32.3385 66.3385 32.599 66.7656 32.7656C67.1927 32.9219 67.6719 33 68.2031 33C68.7344 33 69.1771 32.9271 69.5312 32.7812C69.8854 32.6354 70.1562 32.4375 70.3438 32.1875C70.5312 31.9271 70.625 31.6302 70.625 31.2969ZM89.5844 31.9219V19.0938H94.4906V36H89.8969L89.5844 31.9219ZM90.1 28.4688L91.4438 28.4375C91.4438 29.5729 91.3083 30.6198 91.0375 31.5781C90.7771 32.5365 90.3813 33.3698 89.85 34.0781C89.3292 34.7865 88.6781 35.3385 87.8969 35.7344C87.126 36.1198 86.225 36.3125 85.1938 36.3125C84.3604 36.3125 83.5948 36.1979 82.8969 35.9688C82.2094 35.7292 81.6156 35.3594 81.1156 34.8594C80.6156 34.349 80.2302 33.6979 79.9594 32.9062C79.6885 32.1042 79.5531 31.1458 79.5531 30.0312V19.0938H84.4281V30.0625C84.4281 30.5 84.4802 30.875 84.5844 31.1875C84.699 31.4896 84.85 31.7396 85.0375 31.9375C85.2354 32.1354 85.475 32.2812 85.7563 32.375C86.0479 32.4688 86.3656 32.5156 86.7094 32.5156C87.574 32.5156 88.251 32.3385 88.7406 31.9844C89.2406 31.6198 89.5896 31.1354 89.7875 30.5312C89.9958 29.9167 90.1 29.2292 90.1 28.4688ZM104.153 22.3438V42.5H99.2781V19.0938H103.825L104.153 22.3438ZM114.7 27.3594V27.6875C114.7 28.9167 114.559 30.0573 114.278 31.1094C113.997 32.151 113.575 33.0625 113.013 33.8438C112.46 34.625 111.778 35.2344 110.966 35.6719C110.153 36.099 109.21 36.3125 108.138 36.3125C107.117 36.3125 106.231 36.099 105.481 35.6719C104.742 35.2344 104.117 34.6302 103.606 33.8594C103.106 33.0781 102.7 32.1875 102.388 31.1875C102.085 30.1771 101.851 29.099 101.684 27.9531V27.3125C101.851 26.0938 102.091 24.9635 102.403 23.9219C102.716 22.8802 103.122 21.9792 103.622 21.2188C104.122 20.4479 104.742 19.849 105.481 19.4219C106.221 18.9948 107.101 18.7812 108.122 18.7812C109.184 18.7812 110.127 18.9844 110.95 19.3906C111.773 19.7969 112.46 20.3802 113.013 21.1406C113.575 21.8906 113.997 22.7917 114.278 23.8438C114.559 24.8958 114.7 26.0677 114.7 27.3594ZM109.809 27.6875V27.3594C109.809 26.6719 109.757 26.0417 109.653 25.4688C109.549 24.8854 109.382 24.3802 109.153 23.9531C108.924 23.5156 108.622 23.1771 108.247 22.9375C107.872 22.6979 107.414 22.5781 106.872 22.5781C106.289 22.5781 105.794 22.6719 105.388 22.8594C104.981 23.0469 104.653 23.3229 104.403 23.6875C104.153 24.0417 103.971 24.4792 103.856 25C103.752 25.5208 103.695 26.1146 103.684 26.7812V28.5C103.695 29.2812 103.804 29.9792 104.013 30.5938C104.231 31.1979 104.57 31.6719 105.028 32.0156C105.497 32.349 106.122 32.5156 106.903 32.5156C107.455 32.5156 107.914 32.3958 108.278 32.1562C108.653 31.9062 108.95 31.5573 109.169 31.1094C109.398 30.6615 109.559 30.1458 109.653 29.5625C109.757 28.9792 109.809 28.3542 109.809 27.6875ZM123.784 22.3438V42.5H118.909V19.0938H123.456L123.784 22.3438ZM134.331 27.3594V27.6875C134.331 28.9167 134.191 30.0573 133.909 31.1094C133.628 32.151 133.206 33.0625 132.644 33.8438C132.092 34.625 131.409 35.2344 130.597 35.6719C129.784 36.099 128.842 36.3125 127.769 36.3125C126.748 36.3125 125.862 36.099 125.112 35.6719C124.373 35.2344 123.748 34.6302 123.237 33.8594C122.737 33.0781 122.331 32.1875 122.019 31.1875C121.717 30.1771 121.482 29.099 121.316 27.9531V27.3125C121.482 26.0938 121.722 24.9635 122.034 23.9219C122.347 22.8802 122.753 21.9792 123.253 21.2188C123.753 20.4479 124.373 19.849 125.112 19.4219C125.852 18.9948 126.732 18.7812 127.753 18.7812C128.816 18.7812 129.758 18.9844 130.581 19.3906C131.404 19.7969 132.092 20.3802 132.644 21.1406C133.206 21.8906 133.628 22.7917 133.909 23.8438C134.191 24.8958 134.331 26.0677 134.331 27.3594ZM129.441 27.6875V27.3594C129.441 26.6719 129.389 26.0417 129.284 25.4688C129.18 24.8854 129.014 24.3802 128.784 23.9531C128.555 23.5156 128.253 23.1771 127.878 22.9375C127.503 22.6979 127.045 22.5781 126.503 22.5781C125.92 22.5781 125.425 22.6719 125.019 22.8594C124.612 23.0469 124.284 23.3229 124.034 23.6875C123.784 24.0417 123.602 24.4792 123.487 25C123.383 25.5208 123.326 26.1146 123.316 26.7812V28.5C123.326 29.2812 123.435 29.9792 123.644 30.5938C123.862 31.1979 124.201 31.6719 124.659 32.0156C125.128 32.349 125.753 32.5156 126.534 32.5156C127.086 32.5156 127.545 32.3958 127.909 32.1562C128.284 31.9062 128.581 31.5573 128.8 31.1094C129.029 30.6615 129.191 30.1458 129.284 29.5625C129.389 28.9792 129.441 28.3542 129.441 27.6875ZM143.666 12V36H138.775V12H143.666ZM153.875 34.0469L158.297 19.0938H163.547L156.75 38.5312C156.604 38.9583 156.406 39.4167 156.156 39.9062C155.917 40.3958 155.589 40.8646 155.172 41.3125C154.766 41.7604 154.245 42.125 153.609 42.4062C152.974 42.6875 152.193 42.8281 151.266 42.8281C150.797 42.8281 150.432 42.8021 150.172 42.75C149.922 42.7083 149.589 42.6354 149.172 42.5312L149.156 38.9844C149.292 38.9844 149.411 38.9844 149.516 38.9844C149.63 38.9948 149.745 39 149.859 39C150.443 39 150.911 38.9375 151.266 38.8125C151.63 38.6875 151.911 38.5 152.109 38.25C152.318 38.0104 152.484 37.7031 152.609 37.3281L153.875 34.0469ZM152.391 19.0938L155.891 31.125L156.484 36.2969L153.188 36.4688L147.141 19.0938H152.391ZM172.787 36H167.881V18.4844C167.881 17.0156 168.183 15.776 168.787 14.7656C169.402 13.7552 170.282 12.9896 171.428 12.4688C172.574 11.9375 173.954 11.6719 175.569 11.6719C176.496 11.6719 177.386 11.7552 178.241 11.9219C179.105 12.0885 179.996 12.3073 180.912 12.5781L180.225 16.4688C179.631 16.2917 179.001 16.1302 178.334 15.9844C177.668 15.8385 176.85 15.7656 175.881 15.7656C174.881 15.7656 174.116 16 173.584 16.4688C173.053 16.9271 172.787 17.599 172.787 18.4844V36ZM176.116 19.0938V22.5156H165.397V19.0938H176.116ZM183.162 19.0938V36H178.272V19.0938H183.162ZM193.153 23.0312V36H188.278V19.0938H192.856L193.153 23.0312ZM198.2 18.9688L198.122 23.5156C197.914 23.4844 197.643 23.4583 197.309 23.4375C196.976 23.4062 196.69 23.3906 196.45 23.3906C195.825 23.3906 195.283 23.4688 194.825 23.625C194.377 23.7708 194.002 23.9896 193.7 24.2812C193.408 24.5729 193.19 24.9375 193.044 25.375C192.898 25.8021 192.825 26.2969 192.825 26.8594L191.903 26.4062C191.903 25.2917 192.012 24.2708 192.231 23.3438C192.45 22.4167 192.768 21.6146 193.184 20.9375C193.601 20.25 194.111 19.7188 194.716 19.3438C195.32 18.9688 196.007 18.7812 196.778 18.7812C197.028 18.7812 197.283 18.7969 197.544 18.8281C197.804 18.8594 198.023 18.9062 198.2 18.9688ZM210.8 31.2969C210.8 30.9844 210.701 30.7083 210.503 30.4688C210.316 30.2292 209.972 30.0104 209.472 29.8125C208.982 29.6146 208.29 29.4167 207.394 29.2188C206.55 29.0417 205.764 28.8125 205.034 28.5312C204.305 28.2396 203.67 27.8906 203.128 27.4844C202.586 27.0677 202.165 26.5781 201.863 26.0156C201.56 25.4427 201.409 24.7917 201.409 24.0625C201.409 23.3542 201.56 22.6823 201.863 22.0469C202.175 21.4115 202.623 20.849 203.206 20.3594C203.8 19.8698 204.519 19.4844 205.363 19.2031C206.217 18.9219 207.185 18.7812 208.269 18.7812C209.758 18.7812 211.045 19.0156 212.128 19.4844C213.211 19.9427 214.045 20.5885 214.628 21.4219C215.211 22.2448 215.503 23.1875 215.503 24.25H210.628C210.628 23.8125 210.545 23.4323 210.378 23.1094C210.211 22.7865 209.956 22.5365 209.613 22.3594C209.269 22.1719 208.816 22.0781 208.253 22.0781C207.816 22.0781 207.43 22.1562 207.097 22.3125C206.774 22.4583 206.519 22.6615 206.331 22.9219C206.154 23.1823 206.066 23.4844 206.066 23.8281C206.066 24.0677 206.118 24.2865 206.222 24.4844C206.336 24.6719 206.508 24.849 206.738 25.0156C206.977 25.1719 207.284 25.3125 207.659 25.4375C208.045 25.5625 208.514 25.6823 209.066 25.7969C210.243 26.0156 211.316 26.3229 212.284 26.7188C213.264 27.1146 214.045 27.6615 214.628 28.3594C215.222 29.0573 215.519 29.9792 215.519 31.125C215.519 31.875 215.347 32.5625 215.003 33.1875C214.67 33.8125 214.185 34.3594 213.55 34.8281C212.915 35.2969 212.154 35.6615 211.269 35.9219C210.383 36.1823 209.383 36.3125 208.269 36.3125C206.675 36.3125 205.326 36.026 204.222 35.4531C203.118 34.8802 202.284 34.1615 201.722 33.2969C201.17 32.4219 200.894 31.526 200.894 30.6094H205.472C205.493 31.1719 205.633 31.6302 205.894 31.9844C206.165 32.3385 206.514 32.599 206.941 32.7656C207.368 32.9219 207.847 33 208.378 33C208.909 33 209.352 32.9271 209.706 32.7812C210.06 32.6354 210.331 32.4375 210.519 32.1875C210.706 31.9271 210.8 31.6302 210.8 31.2969ZM228.431 19.0938V22.5156H218.4V19.0938H228.431ZM220.697 14.9062H225.587V30.7031C225.587 31.1719 225.645 31.5312 225.759 31.7812C225.874 32.0312 226.061 32.2083 226.322 32.3125C226.582 32.4062 226.916 32.4531 227.322 32.4531C227.614 32.4531 227.864 32.4427 228.072 32.4219C228.28 32.401 228.473 32.375 228.65 32.3438V35.875C228.233 36.0104 227.791 36.1146 227.322 36.1875C226.853 36.2708 226.343 36.3125 225.791 36.3125C224.739 36.3125 223.827 36.1406 223.056 35.7969C222.296 35.4531 221.712 34.9115 221.306 34.1719C220.9 33.4219 220.697 32.4479 220.697 31.25V14.9062Z" fill="#212738"/>
<rect width="50" height="50" rx="3.57143" fill="#212738"/>
<path d="M38.5938 22.4467L34.473 20.092V17.7372L25.25 12.2427L16.2234 17.7372V22.0543L29.9596 30.296L26.2312 32.8471L11.9062 24.2128V15.3824L25.25 7.14062L38.5938 15.3824V22.4467Z" fill="white"/>
<path d="M12.1015 27.5493L16.2223 29.9041V32.2589L25.4453 37.7534L34.472 32.2589V27.9418L20.7357 19.7001L24.4641 17.149L38.7891 25.7833V34.6137L25.4453 42.8555L12.1015 34.6137V27.5493Z" fill="white"/>
</svg>
