<svg width="32" height="27" viewBox="0 0 32 27" fill="none" xmlns="http://www.w3.org/2000/svg">
<rect x="0.433333" y="8.36668" width="29.4667" height="18.2" rx="1.3" fill="#6C7E98" stroke="#6C7E98" stroke-width="0.866667"/>
<path d="M0 14L30.3333 14" stroke="white" stroke-width="4.33333" stroke-linejoin="round"/>
<path d="M3.46667 21.8H16.9M3.46667 23.9667H10.4" stroke="white" stroke-width="0.866667" stroke-linecap="round" stroke-linejoin="round"/>
<circle cx="25.5667" cy="22.2333" r="2.16667" fill="white"/>
<circle cx="23.9851" cy="7.65295" r="7.08628" fill="#6C7E98" stroke="white" stroke-width="0.866667"/>
<path d="M24.1954 10.8129C23.0533 10.8129 22.6042 10.3029 22.5433 9.64867H21.3235C21.3901 10.8628 22.2993 11.5448 23.3638 11.7721V12.9751H25.027V11.7832C26.1081 11.578 26.9675 10.9515 26.9675 9.815C26.9675 8.24047 25.6202 7.70269 24.3617 7.37558C23.1032 7.04848 22.6985 6.71029 22.6985 6.1836C22.6985 5.57929 23.2584 5.15794 24.1954 5.15794C25.1823 5.15794 25.5482 5.62919 25.5814 6.3222H26.8067C26.7679 5.36861 26.1857 4.49264 25.027 4.20989V2.99573H23.3638V4.19326C22.2882 4.42611 21.4233 5.12467 21.4233 6.19469C21.4233 7.47538 22.4823 8.11295 24.0291 8.48441C25.4151 8.81706 25.6923 9.30494 25.6923 9.82054C25.6923 10.2031 25.4207 10.8129 24.1954 10.8129Z" fill="white"/>
</svg>
