<svg width="27" height="26" viewBox="0 0 27 26" fill="none" xmlns="http://www.w3.org/2000/svg">
<path d="M1.25006 7.52026C1.25006 6.97786 1.80806 6.61482 2.30394 6.83458L12.8403 11.5041C13.1115 11.6243 13.2864 11.8931 13.2864 12.1898V23.8984C13.2864 24.4529 12.7053 24.8157 12.2071 24.5723L1.67079 19.4238C1.41334 19.298 1.25006 19.0365 1.25006 18.75V7.52026Z" fill="#6C7E98" stroke="white" stroke-width="0.5"/>
<path d="M25.8227 7.52026C25.8227 6.97786 25.2647 6.61482 24.7688 6.83458L14.2325 11.5041C13.9613 11.6243 13.7864 11.8931 13.7864 12.1898V23.8984C13.7864 24.4529 14.3674 24.8157 14.8657 24.5723L25.402 19.4238C25.6594 19.298 25.8227 19.0365 25.8227 18.75V7.52026Z" fill="#6C7E98" stroke="white" stroke-width="0.5"/>
<path d="M17.8101 16.0979V9.64515L21.1256 8.17578V14.5308L17.8101 16.0979Z" fill="white"/>
<path d="M13.2324 10.8461L3.13813 6.37246C2.54638 6.1102 2.54242 5.27184 3.13166 5.004L13.226 0.415684C13.4232 0.32605 13.6495 0.32605 13.8467 0.415684L23.941 5.004C24.5302 5.27184 24.5262 6.1102 23.9345 6.37246L13.8402 10.8461C13.6467 10.9318 13.4259 10.9318 13.2324 10.8461Z" fill="#6C7E98" stroke="white" stroke-width="0.5"/>
<path d="M17.8101 9.36635L5.33221 3.72951L8.46629 2.30493L20.9442 7.97738L17.8101 9.36635Z" fill="white"/>
<path d="M13.5364 25.5V11.5391V11.3967M13.5364 11.3967L13.5495 11.3909L26.0727 5.84082M13.5364 11.3967L1.00006 5.84082" stroke="white" stroke-width="0.5"/>
</svg>
