<svg width="31" height="30" viewBox="0 0 31 30" fill="none" xmlns="http://www.w3.org/2000/svg">
<path fill-rule="evenodd" clip-rule="evenodd" d="M10.6667 19.3333V21.5H25.8334L29.0834 28V8.5H24.7501V17.1667C24.7501 18.3633 23.78 19.3333 22.5834 19.3333H10.6667Z" fill="#6C7E98"/>
<path d="M10.6667 21.5H9.58341C9.58341 22.0983 10.0684 22.5833 10.6667 22.5833V21.5ZM10.6667 19.3333V18.25C10.0684 18.25 9.58341 18.735 9.58341 19.3333H10.6667ZM25.8334 21.5L26.8024 21.0155C26.6189 20.6485 26.2438 20.4167 25.8334 20.4167V21.5ZM29.0834 28L28.1145 28.4845C28.3391 28.9339 28.8433 29.1698 29.3323 29.0544C29.8213 28.9389 30.1667 28.5024 30.1667 28H29.0834ZM29.0834 8.5H30.1667C30.1667 7.90169 29.6817 7.41667 29.0834 7.41667V8.5ZM24.7501 8.5V7.41667C24.1518 7.41667 23.6667 7.90169 23.6667 8.5H24.7501ZM11.7501 21.5V19.3333H9.58341V21.5H11.7501ZM25.8334 20.4167H10.6667V22.5833H25.8334V20.4167ZM30.0524 27.5155L26.8024 21.0155L24.8645 21.9845L28.1145 28.4845L30.0524 27.5155ZM28.0001 8.5V28H30.1667V8.5H28.0001ZM24.7501 9.58333H29.0834V7.41667H24.7501V9.58333ZM23.6667 8.5V17.1667H25.8334V8.5H23.6667ZM23.6667 17.1667C23.6667 17.765 23.1817 18.25 22.5834 18.25V20.4167C24.3783 20.4167 25.8334 18.9616 25.8334 17.1667H23.6667ZM22.5834 18.25H10.6667V20.4167H22.5834V18.25Z" fill="#6C7E98"/>
<path d="M20.4167 15V2H2V21.5L5.25 15H20.4167Z" fill="#6C7E98" stroke="#6C7E98" stroke-width="2.16667" stroke-linecap="round" stroke-linejoin="round"/>
</svg>
