<svg width="18" height="18" viewBox="0 0 18 18" fill="none" xmlns="http://www.w3.org/2000/svg">
<path d="M13.1454 11.4598H12.3225L12.0308 11.1786C12.6818 10.4223 13.1576 9.53147 13.4241 8.56985C13.6906 7.60822 13.7413 6.59957 13.5725 5.61608C13.0829 2.72025 10.6662 0.40775 7.74955 0.053583C6.72415 -0.0761402 5.68266 0.0304284 4.70478 0.365134C3.7269 0.699839 2.83855 1.25381 2.1077 1.98466C1.37686 2.7155 0.822886 3.60386 0.488181 4.58173C0.153475 5.55961 0.0469067 6.6011 0.17663 7.6265C0.530797 10.5432 2.8433 12.9598 5.73913 13.4494C6.72262 13.6182 7.73127 13.5675 8.69289 13.301C9.65452 13.0345 10.5453 12.5587 11.3016 11.9077L11.5829 12.1994V13.0223L16.01 17.4494C16.437 17.8765 17.135 17.8765 17.562 17.4494C17.9891 17.0223 17.9891 16.3244 17.562 15.8973L13.1454 11.4598ZM6.89538 11.4598C4.30163 11.4598 2.20788 9.36608 2.20788 6.77233C2.20788 4.17858 4.30163 2.08483 6.89538 2.08483C9.48913 2.08483 11.5829 4.17858 11.5829 6.77233C11.5829 9.36608 9.48913 11.4598 6.89538 11.4598Z" fill="#212738"/>
</svg>
